<?xml version="1.0" encoding="utf-8"?>
<svg width="752pt" height="752pt" version="1.1" viewBox="0 0 752 752" xmlns="http://www.w3.org/2000/svg">
  <defs>
    <clipPath id="a">
      <path d="m173 140h407v472.79h-407z"/>
    </clipPath>
  </defs>
  <path d="m376 0c-49.375 0-98.27 9.7266-143.89 28.621-45.621 18.895-87.07 46.59-121.98 81.508-34.918 34.914-62.613 76.363-81.508 121.98-18.895 45.617-28.621 94.512-28.621 143.89 0 99.723 39.617 195.36 110.13 265.87 70.516 70.516 166.15 110.13 265.87 110.13 99.723 0 195.36-39.617 265.87-110.13 70.512-70.512 110.13-166.15 110.13-265.87 0-99.719-39.613-195.36-110.12-265.87-70.516-70.516-166.15-110.13-265.88-110.13zm0 42.465c43.316 0 86.207 8.625 126.23 25.387 40.02 16.762 76.379 41.332 107.01 72.305s54.926 67.738 71.5 108.21c16.578 40.465 25.105 83.84 25.105 127.64 0 88.461-34.75 173.3-96.605 235.84-61.859 62.551-145.75 97.691-233.23 97.691-43.312 0-86.207-8.625-126.22-25.387-40.02-16.762-76.383-41.332-107.01-72.301-30.629-30.973-54.926-67.742-71.504-108.21-16.574-40.469-25.105-83.84-25.105-127.64s8.5312-87.172 25.105-127.64c16.578-40.469 40.871-77.238 71.5-108.21 30.629-30.969 66.992-55.539 107.01-72.301 40.02-16.762 82.914-25.387 126.23-25.387z" fill="#0cd740"/>
  <g clip-path="url(#a)" style="" transform="matrix(1.241244, 0, 0, 1.107206, -104.154335, -85.256355)">
    <path d="m173.74 557.54c0 30.586 24.664 55.25 55.25 55.25h333.48c5.918 0 9.8672-3.9453 9.8672-9.8672v-90.77c0-5.918-3.9453-9.8672-9.8672-9.8672h-5.918c52.293-83.863 9.8672-195.35-85.836-221.99-1.9727-4.9336-4.9336-8.8789-7.8945-12.824l12.824-19.734c20.719 3.9453 28.613-12.824 28.613-12.824 7.8945-11.84 3.9453-28.613-7.8945-36.504 0 0-4.9336-2.9609-1.9727-8.8789 0 0 14.801-20.719-6.9062-37.492l-12.824-7.8906c-11.84-7.8945-28.613-3.9453-36.504 7.8945-2.9609 4.9336-6.9062 4.9336-9.8672 2.9609-11.84-7.8945-27.625-3.9453-36.504 7.8945-6.9062 9.8672-5.918 22.691 0.98828 31.57l-90.77 144.05c-2.9609 4.9336-1.9727 10.852 2.9609 13.812l3.9453 2.9609-11.844 21.703c-2.9609 4.9336-1.9727 10.852 2.9609 13.812l39.465 24.664c6.9062 3.9453 11.84-0.98828 13.812-2.9609l12.824-20.719 3.9453 2.9609c6.9062 3.9453 11.84 0 13.812-2.9609l27.625-43.41c4.9336 0.98828 22.691 5.918 41.438-5.918 77.945 21.707 82.875 132.21 5.918 158.85h-94.715c4.9336-2.9609 28.613-20.719 28.613-20.719 7.8945-5.918 3.9453-17.758-5.918-17.758l-197.32-0.003906c-9.8672 0-13.812 11.84-5.918 17.758 0 0 26.641 19.734 32.559 23.68-34.531 8.8789-42.426 38.48-42.426 53.277zm234.82-379.85c3.9453-5.918 8.8789-3.9453 9.8672-2.9609 12.824 6.9062 28.613 3.9453 36.504-8.8789l0.98828-0.98828c1.9727-2.9609 5.918-3.9453 8.8789-1.9727l11.84 7.8945c3.9453 2.9609 2.9609 7.8945 1.9727 8.8789l-0.98828 0.98828c-7.8945 11.84-3.9453 28.613 7.8945 36.504 2.9609 1.9727 3.9453 5.918 1.9727 8.8789l-0.98828 0.98828c-4.9336 5.918-9.8672 0.98828-9.8672 0.98828l-65.117-41.438c-3.9414-2.9609-4.9297-6.9062-2.957-8.8828zm-67.09 216.07-22.691-14.801 7.8945-11.84 22.691 14.801zm83.863-63.145c-16.773 0-30.586-13.812-30.586-30.586s13.812-30.586 30.586-30.586c16.773 0 30.586 13.812 30.586 30.586s-13.812 30.586-30.586 30.586zm21.707-74.984c-6.9062-2.9609-13.812-4.9336-21.707-4.9336-27.625 0-50.316 22.691-50.316 50.316 0 15.785 6.9062 29.598 18.746 39.465l-21.707 33.547-3.9453-2.9609-39.465-24.664-3.9453-2.9609 85.836-135.17 47.359 30.586zm20.719 71.039c4.9336-7.8945 7.8945-16.773 7.8945-25.652 80.902 30.586 109.52 131.22 58.211 200.29h-36.504c58.207-49.332 41.434-146.02-29.602-174.63zm-112.48 155.89c-12.824 8.8789-24.664 14.801-35.52 18.746h-66.105c-11.84-3.9453-23.68-10.852-36.504-18.746zm-126.29 38.477h323.61l0.003906 72.023h-323.62c-19.734 0-35.52-15.785-35.52-35.52 0.003906-9.8633 6.9102-33.543 35.52-36.504z"/>
  </g>
</svg>